<svg width="227" height="44" viewBox="0 0 227 44" fill="none" xmlns="http://www.w3.org/2000/svg">
<g clip-path="url(#clip0_179452_172046)">
<g clip-path="url(#clip1_179452_172046)">
<g clip-path="url(#clip2_179452_172046)">
<g clip-path="url(#clip3_179452_172046)">
<g clip-path="url(#clip4_179452_172046)">
<g clip-path="url(#clip5_179452_172046)">
<path d="M8.73513 44C7.08387 44 5.5946 43.6354 4.26731 42.9061C2.93687 42.1801 1.89423 41.1786 1.13937 39.9017C0.384509 38.6279 0.00708008 37.193 0.00708008 35.5968C0.00708008 34.0007 0.384509 32.5642 1.13937 31.2873C1.89423 30.0135 2.94002 29.0121 4.27675 28.2828C5.61347 27.5568 7.10746 27.1937 8.75872 27.1937C10.0483 27.1937 11.2277 27.4097 12.2971 27.8416C13.3665 28.2703 14.2786 28.9072 15.0335 29.7522L13.5002 31.231C12.2578 29.9322 10.7088 29.2828 8.85307 29.2828C7.62643 29.2828 6.51773 29.5566 5.52698 30.1043C4.53623 30.652 3.7625 31.4062 3.20579 32.367C2.64594 33.331 2.36601 34.4076 2.36601 35.5968C2.36601 36.7861 2.64594 37.8611 3.20579 38.8219C3.7625 39.7859 4.53623 40.5417 5.52698 41.0894C6.51773 41.6371 7.62643 41.9109 8.85307 41.9109C10.693 41.9109 12.2421 41.2537 13.5002 39.9392L15.0335 41.418C14.2786 42.263 13.3633 42.9046 12.2877 43.3427C11.2089 43.7809 10.0247 44 8.73513 44ZM25.5071 44C23.8402 44 22.3383 43.6354 21.0016 42.9061C19.6648 42.1801 18.6143 41.1754 17.85 39.8923C17.0889 38.6091 16.7083 37.1773 16.7083 35.5968C16.7083 34.0164 17.0889 32.5846 17.85 31.3014C18.6143 30.0182 19.6648 29.0121 21.0016 28.2828C22.3383 27.5568 23.8402 27.1937 25.5071 27.1937C27.1584 27.1937 28.6524 27.5568 29.9891 28.2828C31.3258 29.0121 32.3716 30.0135 33.1265 31.2873C33.8813 32.5642 34.2588 34.0007 34.2588 35.5968C34.2588 37.193 33.8813 38.6279 33.1265 39.9017C32.3716 41.1786 31.3258 42.1801 29.9891 42.9061C28.6524 43.6354 27.1584 44 25.5071 44ZM25.5071 41.9109C26.718 41.9109 27.8063 41.6371 28.7719 41.0894C29.7406 40.5417 30.5033 39.7859 31.0601 38.8219C31.6199 37.8611 31.8998 36.7861 31.8998 35.5968C31.8998 34.4076 31.6199 33.331 31.0601 32.367C30.5033 31.4062 29.7406 30.652 28.7719 30.1043C27.8063 29.5566 26.718 29.2828 25.5071 29.2828C24.2962 29.2828 23.1985 29.5566 22.2141 30.1043C21.2327 30.652 20.4622 31.4062 19.9023 32.367C19.3456 33.331 19.0672 34.4076 19.0672 35.5968C19.0672 36.7861 19.3456 37.8611 19.9023 38.8219C20.4622 39.7859 21.2327 40.5417 22.2141 41.0894C23.1985 41.6371 24.2962 41.9109 25.5071 41.9109ZM44.7088 44C42.5072 44 40.793 43.374 39.5664 42.1222C38.3397 40.8703 37.7264 39.0708 37.7264 36.7235V27.3815H40.0853V36.6296C40.0853 40.1505 41.6344 41.9109 44.7324 41.9109C46.2421 41.9109 47.398 41.4759 48.2001 40.6059C49.0021 39.7389 49.4031 38.4135 49.4031 36.6296V27.3815H51.6913V36.7235C51.6913 39.0864 51.0779 40.8891 49.8513 42.1316C48.6247 43.3772 46.9105 44 44.7088 44ZM68.3642 27.3815H70.7231V43.8122H68.7888L58.8813 31.5596V43.8122H56.5224V27.3815H58.4567L68.3642 39.6341V27.3815ZM78.9558 43.8122V29.4236H73.2944V27.3815H86.9526V29.4236H81.2911V43.8122H78.9558ZM103.324 44C101.657 44 100.155 43.6354 98.818 42.9061C97.4813 42.1801 96.4308 41.1754 95.6665 39.8923C94.9053 38.6091 94.5247 37.1773 94.5247 35.5968C94.5247 34.0164 94.9053 32.5846 95.6665 31.3014C96.4308 30.0182 97.4813 29.0121 98.818 28.2828C100.155 27.5568 101.657 27.1937 103.324 27.1937C104.975 27.1937 106.469 27.5568 107.806 28.2828C109.142 29.0121 110.188 30.0135 110.943 31.2873C111.698 32.5642 112.075 34.0007 112.075 35.5968C112.075 37.193 111.698 38.6279 110.943 39.9017C110.188 41.1786 109.142 42.1801 107.806 42.9061C106.469 43.6354 104.975 44 103.324 44ZM103.324 41.9109C104.534 41.9109 105.623 41.6371 106.588 41.0894C107.557 40.5417 108.32 39.7859 108.876 38.8219C109.436 37.8611 109.716 36.7861 109.716 35.5968C109.716 34.4076 109.436 33.331 108.876 32.367C108.32 31.4062 107.557 30.652 106.588 30.1043C105.623 29.5566 104.534 29.2828 103.324 29.2828C102.109 29.2828 101.012 29.5566 100.03 30.1043C99.046 30.652 98.2754 31.4062 97.7187 32.367C97.162 33.331 96.8837 34.4076 96.8837 35.5968C96.8837 36.7861 97.162 37.8611 97.7187 38.8219C98.2754 39.7859 99.046 40.5417 100.03 41.0894C101.012 41.6371 102.109 41.9109 103.324 41.9109ZM127.333 29.4236H118.039V35.1509H126.318V37.1695H118.039V43.8122H115.68V27.3815H127.333V29.4236ZM154.578 43.8122H152.314L152.29 31.8413L146.322 41.817H145.237L139.269 31.9117V43.8122H137.004V27.3815H138.939L145.827 38.9299L152.621 27.3815H154.555L154.578 43.8122ZM166.982 44C165.315 44 163.813 43.6354 162.476 42.9061C161.139 42.1801 160.09 41.1754 159.329 39.8923C158.565 38.6091 158.183 37.1773 158.183 35.5968C158.183 34.0164 158.565 32.5846 159.329 31.3014C160.09 30.0182 161.139 29.0121 162.476 28.2828C163.813 27.5568 165.315 27.1937 166.982 27.1937C168.633 27.1937 170.127 27.5568 171.464 28.2828C172.8 29.0121 173.846 30.0135 174.601 31.2873C175.359 32.5642 175.738 34.0007 175.738 35.5968C175.738 37.193 175.359 38.6279 174.601 39.9017C173.846 41.1786 172.8 42.1801 171.464 42.9061C170.127 43.6354 168.633 44 166.982 44ZM166.982 41.9109C168.193 41.9109 169.282 41.6371 170.251 41.0894C171.217 40.5417 171.979 39.7859 172.539 38.8219C173.099 37.8611 173.379 36.7861 173.379 35.5968C173.379 34.4076 173.099 33.331 172.539 32.367C171.979 31.4062 171.217 30.652 170.251 30.1043C169.282 29.5566 168.193 29.2828 166.982 29.2828C165.771 29.2828 164.675 29.5566 163.693 30.1043C162.709 30.652 161.938 31.4062 161.382 32.367C160.822 33.331 160.542 34.4076 160.542 35.5968C160.542 36.7861 160.822 37.8611 161.382 38.8219C161.938 39.7859 162.709 40.5417 163.693 41.0894C164.675 41.6371 165.771 41.9109 166.982 41.9109ZM191.184 27.3815H193.543V43.8122H191.609L181.701 31.5596V43.8122H179.342V27.3815H181.277L191.184 39.6341V27.3815ZM200.856 41.7701H210.48V43.8122H198.497V27.3815H210.15V29.4236H200.856V34.4702H209.136V36.4653H200.856V41.7701ZM226.993 27.3815L220.435 38.1319V43.8122H218.1V38.0849L211.542 27.3815H214.066L219.35 36.0428L224.658 27.3815H226.993Z" fill="black"/>
</g>
</g>
</g>
</g>
<g clip-path="url(#clip6_179452_172046)">
<g clip-path="url(#clip7_179452_172046)">
<path d="M112.268 21.4111V19.5758C111.032 19.5176 109.833 19.1505 109.132 18.7446L109.685 16.484C110.46 16.9286 111.548 17.3345 112.748 17.3345C113.818 17.3345 114.537 16.8898 114.537 16.1363C114.537 15.4021 113.946 14.9381 112.563 14.4556C110.589 13.7593 109.242 12.7933 109.242 10.9196C109.242 9.20014 110.386 7.86712 112.36 7.48065V5.64526H114.168V7.34536C115.385 7.38416 116.215 7.67365 116.861 7.98302L116.307 10.1661C115.846 9.93429 114.979 9.48963 113.651 9.48963C112.451 9.48963 112.064 10.0502 112.064 10.5909C112.064 11.2091 112.71 11.6344 114.296 12.2332C116.492 13.045 117.359 14.1074 117.359 15.8657C117.359 17.5852 116.215 19.0535 114.093 19.4206V21.4106H112.268V21.4111Z" fill="black"/>
<path d="M118.547 23.2049C121.112 21.1881 122.742 17.7564 122.742 13.7903C122.742 7.5481 118.542 2.48808 113.363 2.48808C108.183 2.48808 103.984 7.5481 103.984 13.7903C103.984 17.7555 105.6 21.177 108.164 23.1942L108.189 23.2262H89.1527V0H137.847V23.2262H118.516L118.547 23.2049ZM134.273 19.6694V14.4266H132.768V18.1715H125.24V19.6694H134.273ZM101.905 19.6694V18.1715H94.3768V14.4266H92.8715V19.6694H101.905ZM134.273 8.80935V3.56652H125.24V5.0644H132.768V8.80984H134.273V8.80935ZM94.3768 8.80935V5.06391H101.905V3.56603H92.8715V8.80887H94.3768V8.80935Z" fill="black"/>
</g>
</g>
</g>
</g>
<defs>
<clipPath id="clip0_179452_172046">
<rect width="227" height="44" fill="white"/>
</clipPath>
<clipPath id="clip1_179452_172046">
<rect width="227" height="44" fill="white"/>
</clipPath>
<clipPath id="clip2_179452_172046">
<rect width="227" height="16.8062" fill="white" transform="translate(0 27.1937)"/>
</clipPath>
<clipPath id="clip3_179452_172046">
<rect width="227" height="16.8062" fill="white" transform="translate(0 27.1937)"/>
</clipPath>
<clipPath id="clip4_179452_172046">
<rect width="227" height="16.8062" fill="white" transform="translate(0 27.1937)"/>
</clipPath>
<clipPath id="clip5_179452_172046">
<rect width="227" height="16.8062" fill="white" transform="translate(0 27.1937)"/>
</clipPath>
<clipPath id="clip6_179452_172046">
<rect width="48.6945" height="23.2262" fill="white" transform="translate(89.1527)"/>
</clipPath>
<clipPath id="clip7_179452_172046">
<rect width="48.6945" height="23.2262" fill="white" transform="translate(89.1527)"/>
</clipPath>
</defs>
</svg>
